<svg id="Layer_1" data-name="Layer 1" xmlns="http://www.w3.org/2000/svg" viewBox="0 0 100 100"><title>app-tray</title><path d="M30.71,26.9a4.82,4.82,0,0,1-4.82,4.82H9.82A4.82,4.82,0,0,1,5,26.9V17.26a4.82,4.82,0,0,1,4.82-4.82H25.89a4.82,4.82,0,0,1,4.82,4.82Zm0,25.71a4.82,4.82,0,0,1-4.82,4.83H9.82A4.82,4.82,0,0,1,5,52.61V43a4.82,4.82,0,0,1,4.82-4.82H25.89A4.82,4.82,0,0,1,30.71,43Zm0,25.72a4.82,4.82,0,0,1-4.82,4.82H9.82A4.82,4.82,0,0,1,5,78.33V68.68a4.82,4.82,0,0,1,4.82-4.82H25.89a4.82,4.82,0,0,1,4.82,4.82ZM62.85,26.9A4.82,4.82,0,0,1,58,31.72H42a4.82,4.82,0,0,1-4.82-4.82V17.26A4.82,4.82,0,0,1,42,12.44H58a4.82,4.82,0,0,1,4.82,4.82Zm0,25.71A4.82,4.82,0,0,1,58,57.44H42a4.82,4.82,0,0,1-4.82-4.83V43A4.82,4.82,0,0,1,42,38.15H58A4.82,4.82,0,0,1,62.85,43Zm0,25.72A4.82,4.82,0,0,1,58,83.15H42a4.82,4.82,0,0,1-4.82-4.82V68.68A4.82,4.82,0,0,1,42,63.86H58a4.82,4.82,0,0,1,4.82,4.82ZM95,26.9a4.82,4.82,0,0,1-4.82,4.82H74.1a4.82,4.82,0,0,1-4.82-4.82V17.26a4.82,4.82,0,0,1,4.82-4.82H90.17A4.82,4.82,0,0,1,95,17.26Zm0,25.71a4.82,4.82,0,0,1-4.82,4.83H74.1a4.82,4.82,0,0,1-4.82-4.83V43a4.82,4.82,0,0,1,4.82-4.82H90.17A4.82,4.82,0,0,1,95,43Zm0,25.72a4.82,4.82,0,0,1-4.82,4.82H74.1a4.82,4.82,0,0,1-4.82-4.82V68.68a4.82,4.82,0,0,1,4.82-4.82H90.17A4.82,4.82,0,0,1,95,68.68Z"/></svg>