<svg xmlns="http://www.w3.org/2000/svg" viewBox="0 0 37 31.71"><title>Untitled-1</title><path d="M30.86,20.84v6.61a6,6,0,0,1-5.95,5.95H7.74a5.73,5.73,0,0,1-4.2-1.74,5.73,5.73,0,0,1-1.74-4.2V10.27a5.73,5.73,0,0,1,1.74-4.2,5.73,5.73,0,0,1,4.2-1.74H22.27a.64.64,0,0,1,.66.66V6.31a.64.64,0,0,1-.66.66H7.74a3.18,3.18,0,0,0-2.33,1,3.18,3.18,0,0,0-1,2.33V27.45a3.18,3.18,0,0,0,1,2.33,3.18,3.18,0,0,0,2.33,1H24.91a3.31,3.31,0,0,0,3.3-3.3V20.84a.64.64,0,0,1,.66-.66H30.2a.64.64,0,0,1,.66.66ZM38.79,3V13.57a1.31,1.31,0,0,1-2.25.93L32.9,10.87,19.44,24.33a.65.65,0,0,1-.95,0L16.14,22a.65.65,0,0,1,0-.95L29.6,7.56,26,3.93a1.3,1.3,0,0,1,0-1.86,1.27,1.27,0,0,1,.93-.39H37.47a1.27,1.27,0,0,1,.93.39A1.27,1.27,0,0,1,38.79,3Z" transform="translate(-1.79 -1.68)"/></svg>