<?xml version="1.0" encoding="utf-8" standalone="no"?>
<!DOCTYPE svg PUBLIC "-//W3C//DTD SVG 1.1//EN"
  "http://www.w3.org/Graphics/SVG/1.1/DTD/svg11.dtd">
<!-- Created with matplotlib (http://matplotlib.org/) -->
<svg height="360pt" version="1.1" viewBox="0 0 480 360" width="480pt" xmlns="http://www.w3.org/2000/svg" xmlns:xlink="http://www.w3.org/1999/xlink">
 <defs>
  <style type="text/css">
*{stroke-linecap:butt;stroke-linejoin:round;}
  </style>
 </defs>
 <g id="figure_1">
  <g id="patch_1">
   <path d="M 0 360 
L 480 360 
L 480 0 
L 0 0 
z
" style="fill:#ffffff;"/>
  </g>
  <g id="axes_1">
   <g id="patch_2">
    <path d="M 48.445313 332.521875 
L 465.7 332.521875 
L 465.7 14.3 
L 48.445313 14.3 
z
" style="fill:#ffffff;"/>
   </g>
   <g id="matplotlib.axis_1">
    <g id="xtick_1">
     <g id="line2d_1">
      <defs>
       <path d="M 0 0 
L 0 3.5 
" id="m84cbb6a59a" style="stroke:#000000;stroke-width:0.8;"/>
      </defs>
      <g>
       <use style="stroke:#000000;stroke-width:0.8;" x="67.411435" xlink:href="#m84cbb6a59a" y="332.521875"/>
      </g>
     </g>
     <g id="text_1">
      <!-- 0 -->
      <defs>
       <path d="M 31.78125 66.40625 
Q 24.171875 66.40625 20.328125 58.90625 
Q 16.5 51.421875 16.5 36.375 
Q 16.5 21.390625 20.328125 13.890625 
Q 24.171875 6.390625 31.78125 6.390625 
Q 39.453125 6.390625 43.28125 13.890625 
Q 47.125 21.390625 47.125 36.375 
Q 47.125 51.421875 43.28125 58.90625 
Q 39.453125 66.40625 31.78125 66.40625 
z
M 31.78125 74.21875 
Q 44.046875 74.21875 50.515625 64.515625 
Q 56.984375 54.828125 56.984375 36.375 
Q 56.984375 17.96875 50.515625 8.265625 
Q 44.046875 -1.421875 31.78125 -1.421875 
Q 19.53125 -1.421875 13.0625 8.265625 
Q 6.59375 17.96875 6.59375 36.375 
Q 6.59375 54.828125 13.0625 64.515625 
Q 19.53125 74.21875 31.78125 74.21875 
z
" id="DejaVuSans-30"/>
      </defs>
      <g transform="translate(64.230185 347.120313)scale(0.1 -0.1)">
       <use xlink:href="#DejaVuSans-30"/>
      </g>
     </g>
    </g>
    <g id="xtick_2">
     <g id="line2d_2">
      <g>
       <use style="stroke:#000000;stroke-width:0.8;" x="143.351864" xlink:href="#m84cbb6a59a" y="332.521875"/>
      </g>
     </g>
     <g id="text_2">
      <!-- 200 -->
      <defs>
       <path d="M 19.1875 8.296875 
L 53.609375 8.296875 
L 53.609375 0 
L 7.328125 0 
L 7.328125 8.296875 
Q 12.9375 14.109375 22.625 23.890625 
Q 32.328125 33.6875 34.8125 36.53125 
Q 39.546875 41.84375 41.421875 45.53125 
Q 43.3125 49.21875 43.3125 52.78125 
Q 43.3125 58.59375 39.234375 62.25 
Q 35.15625 65.921875 28.609375 65.921875 
Q 23.96875 65.921875 18.8125 64.3125 
Q 13.671875 62.703125 7.8125 59.421875 
L 7.8125 69.390625 
Q 13.765625 71.78125 18.9375 73 
Q 24.125 74.21875 28.421875 74.21875 
Q 39.75 74.21875 46.484375 68.546875 
Q 53.21875 62.890625 53.21875 53.421875 
Q 53.21875 48.921875 51.53125 44.890625 
Q 49.859375 40.875 45.40625 35.40625 
Q 44.1875 33.984375 37.640625 27.21875 
Q 31.109375 20.453125 19.1875 8.296875 
z
" id="DejaVuSans-32"/>
      </defs>
      <g transform="translate(133.808114 347.120313)scale(0.1 -0.1)">
       <use xlink:href="#DejaVuSans-32"/>
       <use x="63.623047" xlink:href="#DejaVuSans-30"/>
       <use x="127.246094" xlink:href="#DejaVuSans-30"/>
      </g>
     </g>
    </g>
    <g id="xtick_3">
     <g id="line2d_3">
      <g>
       <use style="stroke:#000000;stroke-width:0.8;" x="219.292293" xlink:href="#m84cbb6a59a" y="332.521875"/>
      </g>
     </g>
     <g id="text_3">
      <!-- 400 -->
      <defs>
       <path d="M 37.796875 64.3125 
L 12.890625 25.390625 
L 37.796875 25.390625 
z
M 35.203125 72.90625 
L 47.609375 72.90625 
L 47.609375 25.390625 
L 58.015625 25.390625 
L 58.015625 17.1875 
L 47.609375 17.1875 
L 47.609375 0 
L 37.796875 0 
L 37.796875 17.1875 
L 4.890625 17.1875 
L 4.890625 26.703125 
z
" id="DejaVuSans-34"/>
      </defs>
      <g transform="translate(209.748543 347.120313)scale(0.1 -0.1)">
       <use xlink:href="#DejaVuSans-34"/>
       <use x="63.623047" xlink:href="#DejaVuSans-30"/>
       <use x="127.246094" xlink:href="#DejaVuSans-30"/>
      </g>
     </g>
    </g>
    <g id="xtick_4">
     <g id="line2d_4">
      <g>
       <use style="stroke:#000000;stroke-width:0.8;" x="295.232722" xlink:href="#m84cbb6a59a" y="332.521875"/>
      </g>
     </g>
     <g id="text_4">
      <!-- 600 -->
      <defs>
       <path d="M 33.015625 40.375 
Q 26.375 40.375 22.484375 35.828125 
Q 18.609375 31.296875 18.609375 23.390625 
Q 18.609375 15.53125 22.484375 10.953125 
Q 26.375 6.390625 33.015625 6.390625 
Q 39.65625 6.390625 43.53125 10.953125 
Q 47.40625 15.53125 47.40625 23.390625 
Q 47.40625 31.296875 43.53125 35.828125 
Q 39.65625 40.375 33.015625 40.375 
z
M 52.59375 71.296875 
L 52.59375 62.3125 
Q 48.875 64.0625 45.09375 64.984375 
Q 41.3125 65.921875 37.59375 65.921875 
Q 27.828125 65.921875 22.671875 59.328125 
Q 17.53125 52.734375 16.796875 39.40625 
Q 19.671875 43.65625 24.015625 45.921875 
Q 28.375 48.1875 33.59375 48.1875 
Q 44.578125 48.1875 50.953125 41.515625 
Q 57.328125 34.859375 57.328125 23.390625 
Q 57.328125 12.15625 50.6875 5.359375 
Q 44.046875 -1.421875 33.015625 -1.421875 
Q 20.359375 -1.421875 13.671875 8.265625 
Q 6.984375 17.96875 6.984375 36.375 
Q 6.984375 53.65625 15.1875 63.9375 
Q 23.390625 74.21875 37.203125 74.21875 
Q 40.921875 74.21875 44.703125 73.484375 
Q 48.484375 72.75 52.59375 71.296875 
z
" id="DejaVuSans-36"/>
      </defs>
      <g transform="translate(285.688972 347.120313)scale(0.1 -0.1)">
       <use xlink:href="#DejaVuSans-36"/>
       <use x="63.623047" xlink:href="#DejaVuSans-30"/>
       <use x="127.246094" xlink:href="#DejaVuSans-30"/>
      </g>
     </g>
    </g>
    <g id="xtick_5">
     <g id="line2d_5">
      <g>
       <use style="stroke:#000000;stroke-width:0.8;" x="371.173151" xlink:href="#m84cbb6a59a" y="332.521875"/>
      </g>
     </g>
     <g id="text_5">
      <!-- 800 -->
      <defs>
       <path d="M 31.78125 34.625 
Q 24.75 34.625 20.71875 30.859375 
Q 16.703125 27.09375 16.703125 20.515625 
Q 16.703125 13.921875 20.71875 10.15625 
Q 24.75 6.390625 31.78125 6.390625 
Q 38.8125 6.390625 42.859375 10.171875 
Q 46.921875 13.96875 46.921875 20.515625 
Q 46.921875 27.09375 42.890625 30.859375 
Q 38.875 34.625 31.78125 34.625 
z
M 21.921875 38.8125 
Q 15.578125 40.375 12.03125 44.71875 
Q 8.5 49.078125 8.5 55.328125 
Q 8.5 64.0625 14.71875 69.140625 
Q 20.953125 74.21875 31.78125 74.21875 
Q 42.671875 74.21875 48.875 69.140625 
Q 55.078125 64.0625 55.078125 55.328125 
Q 55.078125 49.078125 51.53125 44.71875 
Q 48 40.375 41.703125 38.8125 
Q 48.828125 37.15625 52.796875 32.3125 
Q 56.78125 27.484375 56.78125 20.515625 
Q 56.78125 9.90625 50.3125 4.234375 
Q 43.84375 -1.421875 31.78125 -1.421875 
Q 19.734375 -1.421875 13.25 4.234375 
Q 6.78125 9.90625 6.78125 20.515625 
Q 6.78125 27.484375 10.78125 32.3125 
Q 14.796875 37.15625 21.921875 38.8125 
z
M 18.3125 54.390625 
Q 18.3125 48.734375 21.84375 45.5625 
Q 25.390625 42.390625 31.78125 42.390625 
Q 38.140625 42.390625 41.71875 45.5625 
Q 45.3125 48.734375 45.3125 54.390625 
Q 45.3125 60.0625 41.71875 63.234375 
Q 38.140625 66.40625 31.78125 66.40625 
Q 25.390625 66.40625 21.84375 63.234375 
Q 18.3125 60.0625 18.3125 54.390625 
z
" id="DejaVuSans-38"/>
      </defs>
      <g transform="translate(361.629401 347.120313)scale(0.1 -0.1)">
       <use xlink:href="#DejaVuSans-38"/>
       <use x="63.623047" xlink:href="#DejaVuSans-30"/>
       <use x="127.246094" xlink:href="#DejaVuSans-30"/>
      </g>
     </g>
    </g>
    <g id="xtick_6">
     <g id="line2d_6">
      <g>
       <use style="stroke:#000000;stroke-width:0.8;" x="447.11358" xlink:href="#m84cbb6a59a" y="332.521875"/>
      </g>
     </g>
     <g id="text_6">
      <!-- 1000 -->
      <defs>
       <path d="M 12.40625 8.296875 
L 28.515625 8.296875 
L 28.515625 63.921875 
L 10.984375 60.40625 
L 10.984375 69.390625 
L 28.421875 72.90625 
L 38.28125 72.90625 
L 38.28125 8.296875 
L 54.390625 8.296875 
L 54.390625 0 
L 12.40625 0 
z
" id="DejaVuSans-31"/>
      </defs>
      <g transform="translate(434.38858 347.120313)scale(0.1 -0.1)">
       <use xlink:href="#DejaVuSans-31"/>
       <use x="63.623047" xlink:href="#DejaVuSans-30"/>
       <use x="127.246094" xlink:href="#DejaVuSans-30"/>
       <use x="190.869141" xlink:href="#DejaVuSans-30"/>
      </g>
     </g>
    </g>
   </g>
   <g id="matplotlib.axis_2">
    <g id="ytick_1">
     <g id="line2d_7">
      <defs>
       <path d="M 0 0 
L -3.5 0 
" id="ma2eedb3a73" style="stroke:#000000;stroke-width:0.8;"/>
      </defs>
      <g>
       <use style="stroke:#000000;stroke-width:0.8;" x="48.445313" xlink:href="#ma2eedb3a73" y="318.057244"/>
      </g>
     </g>
     <g id="text_7">
      <!-- −1.00 -->
      <defs>
       <path d="M 10.59375 35.5 
L 73.1875 35.5 
L 73.1875 27.203125 
L 10.59375 27.203125 
z
" id="DejaVuSans-2212"/>
       <path d="M 10.6875 12.40625 
L 21 12.40625 
L 21 0 
L 10.6875 0 
z
" id="DejaVuSans-2e"/>
      </defs>
      <g transform="translate(10.8 321.856463)scale(0.1 -0.1)">
       <use xlink:href="#DejaVuSans-2212"/>
       <use x="83.789062" xlink:href="#DejaVuSans-31"/>
       <use x="147.412109" xlink:href="#DejaVuSans-2e"/>
       <use x="179.199219" xlink:href="#DejaVuSans-30"/>
       <use x="242.822266" xlink:href="#DejaVuSans-30"/>
      </g>
     </g>
    </g>
    <g id="ytick_2">
     <g id="line2d_8">
      <g>
       <use style="stroke:#000000;stroke-width:0.8;" x="48.445313" xlink:href="#ma2eedb3a73" y="281.895668"/>
      </g>
     </g>
     <g id="text_8">
      <!-- −0.75 -->
      <defs>
       <path d="M 8.203125 72.90625 
L 55.078125 72.90625 
L 55.078125 68.703125 
L 28.609375 0 
L 18.3125 0 
L 43.21875 64.59375 
L 8.203125 64.59375 
z
" id="DejaVuSans-37"/>
       <path d="M 10.796875 72.90625 
L 49.515625 72.90625 
L 49.515625 64.59375 
L 19.828125 64.59375 
L 19.828125 46.734375 
Q 21.96875 47.46875 24.109375 47.828125 
Q 26.265625 48.1875 28.421875 48.1875 
Q 40.625 48.1875 47.75 41.5 
Q 54.890625 34.8125 54.890625 23.390625 
Q 54.890625 11.625 47.5625 5.09375 
Q 40.234375 -1.421875 26.90625 -1.421875 
Q 22.3125 -1.421875 17.546875 -0.640625 
Q 12.796875 0.140625 7.71875 1.703125 
L 7.71875 11.625 
Q 12.109375 9.234375 16.796875 8.0625 
Q 21.484375 6.890625 26.703125 6.890625 
Q 35.15625 6.890625 40.078125 11.328125 
Q 45.015625 15.765625 45.015625 23.390625 
Q 45.015625 31 40.078125 35.4375 
Q 35.15625 39.890625 26.703125 39.890625 
Q 22.75 39.890625 18.8125 39.015625 
Q 14.890625 38.140625 10.796875 36.28125 
z
" id="DejaVuSans-35"/>
      </defs>
      <g transform="translate(10.8 285.694886)scale(0.1 -0.1)">
       <use xlink:href="#DejaVuSans-2212"/>
       <use x="83.789062" xlink:href="#DejaVuSans-30"/>
       <use x="147.412109" xlink:href="#DejaVuSans-2e"/>
       <use x="179.199219" xlink:href="#DejaVuSans-37"/>
       <use x="242.822266" xlink:href="#DejaVuSans-35"/>
      </g>
     </g>
    </g>
    <g id="ytick_3">
     <g id="line2d_9">
      <g>
       <use style="stroke:#000000;stroke-width:0.8;" x="48.445313" xlink:href="#ma2eedb3a73" y="245.734091"/>
      </g>
     </g>
     <g id="text_9">
      <!-- −0.50 -->
      <g transform="translate(10.8 249.53331)scale(0.1 -0.1)">
       <use xlink:href="#DejaVuSans-2212"/>
       <use x="83.789062" xlink:href="#DejaVuSans-30"/>
       <use x="147.412109" xlink:href="#DejaVuSans-2e"/>
       <use x="179.199219" xlink:href="#DejaVuSans-35"/>
       <use x="242.822266" xlink:href="#DejaVuSans-30"/>
      </g>
     </g>
    </g>
    <g id="ytick_4">
     <g id="line2d_10">
      <g>
       <use style="stroke:#000000;stroke-width:0.8;" x="48.445313" xlink:href="#ma2eedb3a73" y="209.572514"/>
      </g>
     </g>
     <g id="text_10">
      <!-- −0.25 -->
      <g transform="translate(10.8 213.371733)scale(0.1 -0.1)">
       <use xlink:href="#DejaVuSans-2212"/>
       <use x="83.789062" xlink:href="#DejaVuSans-30"/>
       <use x="147.412109" xlink:href="#DejaVuSans-2e"/>
       <use x="179.199219" xlink:href="#DejaVuSans-32"/>
       <use x="242.822266" xlink:href="#DejaVuSans-35"/>
      </g>
     </g>
    </g>
    <g id="ytick_5">
     <g id="line2d_11">
      <g>
       <use style="stroke:#000000;stroke-width:0.8;" x="48.445313" xlink:href="#ma2eedb3a73" y="173.410938"/>
      </g>
     </g>
     <g id="text_11">
      <!-- 0.00 -->
      <g transform="translate(19.179688 177.210156)scale(0.1 -0.1)">
       <use xlink:href="#DejaVuSans-30"/>
       <use x="63.623047" xlink:href="#DejaVuSans-2e"/>
       <use x="95.410156" xlink:href="#DejaVuSans-30"/>
       <use x="159.033203" xlink:href="#DejaVuSans-30"/>
      </g>
     </g>
    </g>
    <g id="ytick_6">
     <g id="line2d_12">
      <g>
       <use style="stroke:#000000;stroke-width:0.8;" x="48.445313" xlink:href="#ma2eedb3a73" y="137.249361"/>
      </g>
     </g>
     <g id="text_12">
      <!-- 0.25 -->
      <g transform="translate(19.179688 141.04858)scale(0.1 -0.1)">
       <use xlink:href="#DejaVuSans-30"/>
       <use x="63.623047" xlink:href="#DejaVuSans-2e"/>
       <use x="95.410156" xlink:href="#DejaVuSans-32"/>
       <use x="159.033203" xlink:href="#DejaVuSans-35"/>
      </g>
     </g>
    </g>
    <g id="ytick_7">
     <g id="line2d_13">
      <g>
       <use style="stroke:#000000;stroke-width:0.8;" x="48.445313" xlink:href="#ma2eedb3a73" y="101.087784"/>
      </g>
     </g>
     <g id="text_13">
      <!-- 0.50 -->
      <g transform="translate(19.179688 104.887003)scale(0.1 -0.1)">
       <use xlink:href="#DejaVuSans-30"/>
       <use x="63.623047" xlink:href="#DejaVuSans-2e"/>
       <use x="95.410156" xlink:href="#DejaVuSans-35"/>
       <use x="159.033203" xlink:href="#DejaVuSans-30"/>
      </g>
     </g>
    </g>
    <g id="ytick_8">
     <g id="line2d_14">
      <g>
       <use style="stroke:#000000;stroke-width:0.8;" x="48.445313" xlink:href="#ma2eedb3a73" y="64.926207"/>
      </g>
     </g>
     <g id="text_14">
      <!-- 0.75 -->
      <g transform="translate(19.179688 68.725426)scale(0.1 -0.1)">
       <use xlink:href="#DejaVuSans-30"/>
       <use x="63.623047" xlink:href="#DejaVuSans-2e"/>
       <use x="95.410156" xlink:href="#DejaVuSans-37"/>
       <use x="159.033203" xlink:href="#DejaVuSans-35"/>
      </g>
     </g>
    </g>
    <g id="ytick_9">
     <g id="line2d_15">
      <g>
       <use style="stroke:#000000;stroke-width:0.8;" x="48.445313" xlink:href="#ma2eedb3a73" y="28.764631"/>
      </g>
     </g>
     <g id="text_15">
      <!-- 1.00 -->
      <g transform="translate(19.179688 32.563849)scale(0.1 -0.1)">
       <use xlink:href="#DejaVuSans-31"/>
       <use x="63.623047" xlink:href="#DejaVuSans-2e"/>
       <use x="95.410156" xlink:href="#DejaVuSans-30"/>
       <use x="159.033203" xlink:href="#DejaVuSans-30"/>
      </g>
     </g>
    </g>
   </g>
   <g id="line2d_16">
    <path clip-path="url(#p6b615fea2d)" d="M 67.411435 173.410938 
L 70.06935 111.823535 
L 71.588158 81.209912 
L 72.727265 61.959043 
L 73.866371 46.656413 
L 74.625775 38.922203 
L 75.38518 33.30896 
L 76.144584 29.90521 
L 76.524286 29.050057 
L 76.903988 28.764631 
L 77.28369 29.050057 
L 77.663393 29.90521 
L 78.043095 31.326714 
L 78.802499 35.844125 
L 79.561903 42.531046 
L 80.321308 51.282021 
L 81.460414 67.968318 
L 82.59952 88.389972 
L 84.118329 120.163081 
L 86.776244 182.493354 
L 89.054457 234.99834 
L 90.573266 265.611963 
L 91.712372 284.862832 
L 92.851478 300.165462 
L 93.610883 307.899672 
L 94.370287 313.512915 
L 95.129691 316.916665 
L 95.509393 317.771818 
L 95.889096 318.057244 
L 96.268798 317.771818 
L 96.6485 316.916665 
L 97.028202 315.495161 
L 97.787606 310.97775 
L 98.547011 304.290829 
L 99.306415 295.539854 
L 100.445521 278.853557 
L 101.584628 258.431903 
L 103.103436 226.658794 
L 105.761351 164.328521 
L 108.039564 111.823535 
L 109.558373 81.209912 
L 110.697479 61.959043 
L 111.836586 46.656413 
L 112.59599 38.922203 
L 113.355394 33.30896 
L 114.114799 29.90521 
L 114.494501 29.050057 
L 114.874203 28.764631 
L 115.253905 29.050057 
L 115.633607 29.90521 
L 116.013309 31.326714 
L 116.772714 35.844125 
L 117.532118 42.531046 
L 118.291522 51.282021 
L 119.430629 67.968318 
L 120.569735 88.389972 
L 122.088544 120.163081 
L 124.746459 182.493354 
L 127.024671 234.99834 
L 128.54348 265.611963 
L 129.682586 284.862832 
L 130.821693 300.165462 
L 131.581097 307.899672 
L 132.340502 313.512915 
L 133.099906 316.916665 
L 133.479608 317.771818 
L 133.85931 318.057244 
L 134.239012 317.771818 
L 134.618714 316.916665 
L 134.998417 315.495161 
L 135.757821 310.97775 
L 136.517225 304.290829 
L 137.276629 295.539854 
L 138.415736 278.853557 
L 139.554842 258.431903 
L 141.073651 226.658794 
L 143.731566 164.328521 
L 146.009779 111.823535 
L 147.528587 81.209912 
L 148.667694 61.959043 
L 149.8068 46.656413 
L 150.566204 38.922203 
L 151.325609 33.30896 
L 152.085013 29.90521 
L 152.464715 29.050057 
L 152.844417 28.764631 
L 153.22412 29.050057 
L 153.603822 29.90521 
L 153.983524 31.326714 
L 154.742928 35.844125 
L 155.502332 42.531046 
L 156.261737 51.282021 
L 157.400843 67.968318 
L 158.53995 88.389972 
L 160.058758 120.163081 
L 162.716673 182.493354 
L 164.994886 234.99834 
L 166.513695 265.611963 
L 167.652801 284.862832 
L 168.791907 300.165462 
L 169.551312 307.899672 
L 170.310716 313.512915 
L 171.07012 316.916665 
L 171.449822 317.771818 
L 171.829525 318.057244 
L 172.209227 317.771818 
L 172.588929 316.916665 
L 172.968631 315.495161 
L 173.728035 310.97775 
L 174.48744 304.290829 
L 175.246844 295.539854 
L 176.38595 278.853557 
L 177.525057 258.431903 
L 179.043865 226.658794 
L 181.70178 164.328521 
L 183.979993 111.823535 
L 185.498802 81.209912 
L 186.637908 61.959043 
L 187.777015 46.656413 
L 188.536419 38.922203 
L 189.295823 33.30896 
L 190.055228 29.90521 
L 190.43493 29.050057 
L 190.814632 28.764631 
L 191.194334 29.050057 
L 191.574036 29.90521 
L 191.953738 31.326714 
L 192.713143 35.844125 
L 193.472547 42.531046 
L 194.231951 51.282021 
L 195.371058 67.968318 
L 196.510164 88.389972 
L 198.028973 120.163081 
L 200.686888 182.493354 
L 202.965101 234.99834 
L 204.483909 265.611963 
L 205.623016 284.862832 
L 206.762122 300.165462 
L 207.521526 307.899672 
L 208.280931 313.512915 
L 209.040335 316.916665 
L 209.420037 317.771818 
L 209.799739 318.057244 
L 210.179441 317.771818 
L 210.559143 316.916665 
L 210.938846 315.495161 
L 211.69825 310.97775 
L 212.457654 304.290829 
L 213.217058 295.539854 
L 214.356165 278.853557 
L 215.495271 258.431903 
L 217.01408 226.658794 
L 219.671995 164.328521 
L 221.950208 111.823535 
L 223.469016 81.209912 
L 224.608123 61.959043 
L 225.747229 46.656413 
L 226.506634 38.922203 
L 227.266038 33.30896 
L 228.025442 29.90521 
L 228.405144 29.050057 
L 228.784846 28.764631 
L 229.164549 29.050057 
L 229.544251 29.90521 
L 229.923953 31.326714 
L 230.683357 35.844125 
L 231.442761 42.531046 
L 232.202166 51.282021 
L 233.341272 67.968318 
L 234.480379 88.389972 
L 235.999187 120.163081 
L 238.657102 182.493354 
L 240.935315 234.99834 
L 242.454124 265.611963 
L 243.59323 284.862832 
L 244.732337 300.165462 
L 245.491741 307.899672 
L 246.251145 313.512915 
L 247.010549 316.916665 
L 247.390252 317.771818 
L 247.769954 318.057244 
L 248.149656 317.771818 
L 248.529358 316.916665 
L 248.90906 315.495161 
L 249.668464 310.97775 
L 250.427869 304.290829 
L 251.187273 295.539854 
L 252.326379 278.853557 
L 253.465486 258.431903 
L 254.984294 226.658794 
L 257.642209 164.328521 
L 259.920422 111.823535 
L 261.439231 81.209912 
L 262.578337 61.959043 
L 263.717444 46.656413 
L 264.476848 38.922203 
L 265.236252 33.30896 
L 265.995657 29.90521 
L 266.375359 29.050057 
L 266.755061 28.764631 
L 267.134763 29.050057 
L 267.514465 29.90521 
L 267.894167 31.326714 
L 268.653572 35.844125 
L 269.412976 42.531046 
L 270.17238 51.282021 
L 271.311487 67.968318 
L 272.450593 88.389972 
L 273.969402 120.163081 
L 276.627317 182.493354 
L 278.90553 234.99834 
L 280.424338 265.611963 
L 281.563445 284.862832 
L 282.702551 300.165462 
L 283.461955 307.899672 
L 284.22136 313.512915 
L 284.980764 316.916665 
L 285.360466 317.771818 
L 285.740168 318.057244 
L 286.11987 317.771818 
L 286.499573 316.916665 
L 286.879275 315.495161 
L 287.638679 310.97775 
L 288.398083 304.290829 
L 289.157488 295.539854 
L 290.296594 278.853557 
L 291.4357 258.431903 
L 292.954509 226.658794 
L 295.612424 164.328521 
L 297.890637 111.823535 
L 299.409445 81.209912 
L 300.548552 61.959043 
L 301.687658 46.656413 
L 302.447063 38.922203 
L 303.206467 33.30896 
L 303.965871 29.90521 
L 304.345573 29.050057 
L 304.725275 28.764631 
L 305.104978 29.050057 
L 305.48468 29.90521 
L 305.864382 31.326714 
L 306.623786 35.844125 
L 307.383191 42.531046 
L 308.142595 51.282021 
L 309.281701 67.968318 
L 310.420808 88.389972 
L 311.939616 120.163081 
L 314.597531 182.493354 
L 316.875744 234.99834 
L 318.394553 265.611963 
L 319.533659 284.862832 
L 320.672766 300.165462 
L 321.43217 307.899672 
L 322.191574 313.512915 
L 322.950978 316.916665 
L 323.330681 317.771818 
L 323.710383 318.057244 
L 324.090085 317.771818 
L 324.469787 316.916665 
L 324.849489 315.495161 
L 325.608893 310.97775 
L 326.368298 304.290829 
L 327.127702 295.539854 
L 328.266808 278.853557 
L 329.405915 258.431903 
L 330.924724 226.658794 
L 333.582639 164.328521 
L 335.860851 111.823535 
L 337.37966 81.209912 
L 338.518766 61.959043 
L 339.657873 46.656413 
L 340.417277 38.922203 
L 341.176681 33.30896 
L 341.936086 29.90521 
L 342.315788 29.050057 
L 342.69549 28.764631 
L 343.075192 29.050057 
L 343.454894 29.90521 
L 343.834596 31.326714 
L 344.594001 35.844125 
L 345.353405 42.531046 
L 346.112809 51.282021 
L 347.251916 67.968318 
L 348.391022 88.389972 
L 349.909831 120.163081 
L 352.567746 182.493354 
L 354.845959 234.99834 
L 356.364767 265.611963 
L 357.503874 284.862832 
L 358.64298 300.165462 
L 359.402384 307.899672 
L 360.161789 313.512915 
L 360.921193 316.916665 
L 361.300895 317.771818 
L 361.680597 318.057244 
L 362.060299 317.771818 
L 362.440002 316.916665 
L 362.819704 315.495161 
L 363.579108 310.97775 
L 364.338512 304.290829 
L 365.097917 295.539854 
L 366.237023 278.853557 
L 367.376129 258.431903 
L 368.894938 226.658794 
L 371.552853 164.328521 
L 373.831066 111.823535 
L 375.349875 81.209912 
L 376.488981 61.959043 
L 377.628087 46.656413 
L 378.387492 38.922203 
L 379.146896 33.30896 
L 379.9063 29.90521 
L 380.286002 29.050057 
L 380.665705 28.764631 
L 381.045407 29.050057 
L 381.425109 29.90521 
L 381.804811 31.326714 
L 382.564215 35.844125 
L 383.32362 42.531046 
L 384.083024 51.282021 
L 385.22213 67.968318 
L 386.361237 88.389972 
L 387.880045 120.163081 
L 390.53796 182.493354 
L 392.816173 234.99834 
L 394.334982 265.611963 
L 395.474088 284.862832 
L 396.613195 300.165462 
L 397.372599 307.899672 
L 398.132003 313.512915 
L 398.891408 316.916665 
L 399.27111 317.771818 
L 399.650812 318.057244 
L 400.030514 317.771818 
L 400.410216 316.916665 
L 400.789918 315.495161 
L 401.549323 310.97775 
L 402.308727 304.290829 
L 403.068131 295.539854 
L 404.207238 278.853557 
L 405.346344 258.431903 
L 406.865153 226.658794 
L 409.523068 164.328521 
L 411.80128 111.823535 
L 413.320089 81.209912 
L 414.459195 61.959043 
L 415.598302 46.656413 
L 416.357706 38.922203 
L 417.117111 33.30896 
L 417.876515 29.90521 
L 418.256217 29.050057 
L 418.635919 28.764631 
L 419.015621 29.050057 
L 419.395323 29.90521 
L 419.775026 31.326714 
L 420.53443 35.844125 
L 421.293834 42.531046 
L 422.053238 51.282021 
L 423.192345 67.968318 
L 424.331451 88.389972 
L 425.85026 120.163081 
L 428.508175 182.493354 
L 430.786388 234.99834 
L 432.305196 265.611963 
L 433.444303 284.862832 
L 434.583409 300.165462 
L 435.342813 307.899672 
L 436.102218 313.512915 
L 436.861622 316.916665 
L 437.241324 317.771818 
L 437.621026 318.057244 
L 438.000728 317.771818 
L 438.380431 316.916665 
L 438.760133 315.495161 
L 439.519537 310.97775 
L 440.278941 304.290829 
L 441.038346 295.539854 
L 442.177452 278.853557 
L 443.316559 258.431903 
L 444.835367 226.658794 
L 446.733878 182.493354 
L 446.733878 182.493354 
" style="fill:none;stroke:#1f77b4;stroke-linecap:square;stroke-width:1.5;"/>
   </g>
   <g id="patch_3">
    <path d="M 48.445313 332.521875 
L 48.445313 14.3 
" style="fill:none;stroke:#000000;stroke-linecap:square;stroke-linejoin:miter;stroke-width:0.8;"/>
   </g>
   <g id="patch_4">
    <path d="M 465.7 332.521875 
L 465.7 14.3 
" style="fill:none;stroke:#000000;stroke-linecap:square;stroke-linejoin:miter;stroke-width:0.8;"/>
   </g>
   <g id="patch_5">
    <path d="M 48.445312 332.521875 
L 465.7 332.521875 
" style="fill:none;stroke:#000000;stroke-linecap:square;stroke-linejoin:miter;stroke-width:0.8;"/>
   </g>
   <g id="patch_6">
    <path d="M 48.445312 14.3 
L 465.7 14.3 
" style="fill:none;stroke:#000000;stroke-linecap:square;stroke-linejoin:miter;stroke-width:0.8;"/>
   </g>
  </g>
 </g>
 <defs>
  <clipPath id="p6b615fea2d">
   <rect height="318.221875" width="417.254688" x="48.445313" y="14.3"/>
  </clipPath>
 </defs>
</svg>
