<?xml version="1.0" encoding="iso-8859-1"?>
<!-- Generator: Adobe Illustrator 19.0.0, SVG Export Plug-In . SVG Version: 6.00 Build 0)  -->
<svg version="1.1" id="Layer_1" xmlns="http://www.w3.org/2000/svg" xmlns:xlink="http://www.w3.org/1999/xlink" x="0px" y="0px"
	 viewBox="0 0 512 512" style="enable-background:new 0 0 512 512;" xml:space="preserve">
<circle style="fill:#FFC91B;" cx="256" cy="256" r="256"/>
<path style="fill:#EAA22F;" d="M269.357,511.655c120.277-6.182,218.605-95.382,238.821-211.411L376.604,168.669l-156.806-20.701
	C173.48,154.34,79.348,325.046,82.747,325.046L269.357,511.655z"/>
<path style="fill:#273B7A;" d="M404.416,250.796C402.035,170.863,336.51,106.794,256,106.794s-146.034,64.071-148.416,144.001
	H82.747v74.25h346.505v-74.25H404.416z M256,168.669c46.328,0,84.116,36.381,86.462,82.127H169.538
	C171.884,205.05,209.672,168.669,256,168.669z"/>
<path style="fill:#121149;" d="M429.253,250.794h-24.836C402.035,170.861,336.51,106.793,256,106.793
	c-0.384,0-0.764,0.026-1.148,0.029v61.876c0.384-0.005,0.764-0.028,1.148-0.028c46.328,0,84.116,36.381,86.462,82.127h-87.611
	v74.252h174.401V250.794z"/>
<g>
	<rect x="110.899" y="296.598" style="fill:#FFFFFF;" width="5.172" height="28.444"/>
	<rect x="139.343" y="307.803" style="fill:#FFFFFF;" width="5.172" height="17.239"/>
	<rect x="167.788" y="296.598" style="fill:#FFFFFF;" width="5.172" height="28.444"/>
	<rect x="196.232" y="307.803" style="fill:#FFFFFF;" width="5.172" height="17.239"/>
	<rect x="224.677" y="296.598" style="fill:#FFFFFF;" width="5.172" height="28.444"/>
	<rect x="253.414" y="307.803" style="fill:#FFFFFF;" width="5.172" height="17.239"/>
	<rect x="281.859" y="296.598" style="fill:#FFFFFF;" width="5.172" height="28.444"/>
	<rect x="310.303" y="307.803" style="fill:#FFFFFF;" width="5.172" height="17.239"/>
	<rect x="338.747" y="296.598" style="fill:#FFFFFF;" width="5.172" height="28.444"/>
	<rect x="367.192" y="307.803" style="fill:#FFFFFF;" width="5.172" height="17.239"/>
	<rect x="395.636" y="296.598" style="fill:#FFFFFF;" width="5.172" height="28.444"/>
</g>
<g>
</g>
<g>
</g>
<g>
</g>
<g>
</g>
<g>
</g>
<g>
</g>
<g>
</g>
<g>
</g>
<g>
</g>
<g>
</g>
<g>
</g>
<g>
</g>
<g>
</g>
<g>
</g>
<g>
</g>
</svg>
