<?xml version="1.0" encoding="UTF-8" standalone="no"?>
<!-- Generator: Adobe Illustrator 19.0.0, SVG Export Plug-In . SVG Version: 6.00 Build 0)  -->

<svg
   xmlns:dc="http://purl.org/dc/elements/1.1/"
   xmlns:cc="http://creativecommons.org/ns#"
   xmlns:rdf="http://www.w3.org/1999/02/22-rdf-syntax-ns#"
   xmlns:svg="http://www.w3.org/2000/svg"
   xmlns="http://www.w3.org/2000/svg"
   xmlns:sodipodi="http://sodipodi.sourceforge.net/DTD/sodipodi-0.dtd"
   xmlns:inkscape="http://www.inkscape.org/namespaces/inkscape"
   version="1.1"
   id="Layer_1"
   x="0px"
   y="0px"
   viewBox="0 0 488.852 488.852"
   style="enable-background:new 0 0 488.852 488.852;"
   xml:space="preserve"
   sodipodi:docname="polygon.svg"
   inkscape:version="0.92.3 (3ce5693, 2018-03-11)"><metadata
   id="metadata2014"><rdf:RDF><cc:Work
       rdf:about=""><dc:format>image/svg+xml</dc:format><dc:type
         rdf:resource="http://purl.org/dc/dcmitype/StillImage" /></cc:Work></rdf:RDF></metadata><defs
   id="defs2012" /><sodipodi:namedview
   pagecolor="#ffffff"
   bordercolor="#666666"
   borderopacity="1"
   objecttolerance="10"
   gridtolerance="10"
   guidetolerance="10"
   inkscape:pageopacity="0"
   inkscape:pageshadow="2"
   inkscape:window-width="1869"
   inkscape:window-height="1025"
   id="namedview2010"
   showgrid="false"
   inkscape:zoom="0.48276371"
   inkscape:cx="244.42599"
   inkscape:cy="244.42599"
   inkscape:window-x="51"
   inkscape:window-y="27"
   inkscape:window-maximized="1"
   inkscape:current-layer="Layer_1" />

<g
   id="g1979">
</g>
<g
   id="g1981">
</g>
<g
   id="g1983">
</g>
<g
   id="g1985">
</g>
<g
   id="g1987">
</g>
<g
   id="g1989">
</g>
<g
   id="g1991">
</g>
<g
   id="g1993">
</g>
<g
   id="g1995">
</g>
<g
   id="g1997">
</g>
<g
   id="g1999">
</g>
<g
   id="g2001">
</g>
<g
   id="g2003">
</g>
<g
   id="g2005">
</g>
<g
   id="g2007">
</g>
<g
   id="g2606"><circle
     transform="rotate(-14.999999)"
     id="circle1038"
     r="36.852882"
     cy="147.12492"
     cx="292.97208"
     style="fill:#e64c3c;fill-opacity:1;stroke-width:19.39625931" /><circle
     transform="rotate(-14.999999)"
     id="circle1038-2"
     r="36.852882"
     cy="515.53589"
     cx="299.33609"
     style="fill:#e64c3c;fill-opacity:1;stroke-width:19.39625931" /><circle
     transform="rotate(-14.999999)"
     id="circle1038-0"
     r="36.852882"
     cy="304.20242"
     cx="-17.176437"
     style="fill:#e64c3c;fill-opacity:1;stroke-width:19.39625931" /><g
     style="fill:#2c3e50;fill-opacity:1"
     id="g1977">
	<g
   style="fill:#2c3e50;fill-opacity:1"
   id="g1975">
		<path
   style="fill:#2c3e50;fill-opacity:1"
   id="path1973"
   d="M423.95,353.297l-67.9-228.9c29.1-18.8,38.6-59.4,19.5-90.9c-19.4-31.9-60-42.6-91-23.7c-28.2,17.2-38.4,52.4-25.5,82.7    l-166,143.8c-29.6-12.7-65-1.4-82.8,27.8c-19.5,32-10.4,72.8,20.7,91.8c28.1,17.2,66.1,9.6,86.8-17.5l240.2,82    c-0.3,37.4,28.6,67.7,65,68c36.4,0.3,65.7-29.7,65.9-67.1C489.15,383.897,460.25,353.497,423.95,353.297z M87.35,311.197    c-7.6,12.4-23.8,17.1-35.3,10.1s-14.8-23.6-7.2-36c7.6-12.4,23.8-17.1,35.3-10.1S94.05,298.197,87.35,311.197z M305.55,44.497    c11.5-7,27.8-2.3,35.3,10.1c7.6,12.4,4.3,29-7.3,36c-11.5,7-27.8,2.3-35.3-10.1C290.65,68.097,293.95,51.497,305.55,44.497z     M370.15,381.497l-238.1-81.3c0.7-12.7-2.1-25.2-8.2-36.1l161.2-140.3c9.7,6.3,20.8,10,32.1,10.8l68.6,231    C379.75,369.897,374.45,375.297,370.15,381.497z M423.25,448.897c-13.5-0.1-24.8-12.6-24.7-27.2c0.1-14.5,11.6-26.9,25.1-26.8    c13.5,0.1,24.8,12.6,24.7,27.2C448.25,436.597,436.75,448.897,423.25,448.897z" />
	</g>
</g></g></svg>