<svg xmlns="http://www.w3.org/2000/svg" viewBox="0 0 20 20"><defs><style>.a{fill:#211e1f;}</style></defs><title>Artboard 1</title><path class="a" d="M11.07,4A3.41,3.41,0,0,0,9.8,3.74a2.21,2.21,0,0,0-1.62.63L4.53,8l.38.38L3.52,9.8,1.19,7.46,2.58,6.08,3,6.5,6.64,2.86a2.27,2.27,0,0,1,1.61-.74A3.73,3.73,0,0,1,11.07,4ZM18,5.18a2.5,2.5,0,0,1,.1.68A2.4,2.4,0,0,1,15.7,8.27,2.56,2.56,0,0,1,15,8.17l-2.35,2.35L18,15.63l-2.13,2.13-5.12-5.34L8.48,14.66a2.52,2.52,0,0,1,.11.72,2.35,2.35,0,0,1-.7,1.72,2.32,2.32,0,0,1-1.71.7,2.47,2.47,0,0,1-.68-.1l1.86-1.86L5.52,14,3.66,15.88a2.48,2.48,0,0,1-.1-.68A2.4,2.4,0,0,1,6,12.79a2.74,2.74,0,0,1,.68.09L9,10.59,5.64,7.12,7.32,5.44l3.46,3.32,2.4-2.4a2.63,2.63,0,0,1-.09-.67A2.35,2.35,0,0,1,13.8,4a2.33,2.33,0,0,1,1.71-.7,2.5,2.5,0,0,1,.69.1L14.34,5.21,16.16,7ZM5.58,3.71,3.91,5.38l-.32-.32L5.26,3.39Z"/></svg>